<svg xmlns="http://www.w3.org/2000/svg" width="128" height="128" viewBox="0 0 512 512">
  <defs>
    <style>
      .cls-1 {
        fill-rule: evenodd;
      }
    </style>
  </defs>
  <path id="icon_512_1" data-name="icon_512 1" class="cls-1" d="M172.747,1c22.667-.046,67.226-4.233,80.822,4.99C267.532,15.461,275.477,37.4,283.5,52.9c8.695,16.792,14.7,37.532,19.956,57.887q0.5,11.477,1,22.955c2.807,13.249.339,40.737-2.993,54.893-2.575,10.94-1.133,19.826-3.991,29.941-7.683,27.184-15.353,53.668-25.943,77.848-7.871,17.969-18.937,36.243-29.934,51.9-2.354,3.351-7.051,6.329-8.981,9.98-2.6,4.92,1.7,7.284,2.994,10.979,2.067,5.9,1.7,10.42,3.991,15.969,2.509,6.073,6.62,12.627,8.98,18.963,2,5.363,1.447,13.084,4.989,16.966,1.538,1.686,6.856,1.026,9.978,1,6.047-5.6,14.668-7.525,21.952-11.976q14.272-8.723,28.936-17.965c31.112-19.652,59.951-42.1,88.805-63.875,6.179-4.663,10.824-12.32,16.962-16.967,21.756-16.47,38.986-37.415,60.866-53.895,9.061-6.825,20.383-23.117,30.932-26.947v19.961c-5.678,3.685-9.673,9.977-14.967,13.972-20.728,15.645-37.305,35.353-57.873,50.9-6.887,5.207-12.064,13.743-18.958,18.963-17.873,13.532-34.484,28.994-52.883,41.918-28.871,20.279-59.075,36.217-89.8,54.893-4.159,2.528-9.644,4.989-13.969,7.984l-6.984,8.983-9.978,1q-2.994,3.492-5.987,6.986h-6.985c-8.286,3.477-16.556,12.048-23.947,16.967-15.49,10.31-32,18.046-47.9,27.945-4.439,2.766-9.318,9.092-13.969,10.979H126.848v-1h1c7.272-13.716,25-22.9,37.917-30.94,6.6-4.1,19.155-6.3,20.953-14.97-2.406-4.422,1-17.6,1-23.954,0-12.01-2.718-24.847-4.989-34.931a15.646,15.646,0,0,0-4.989-1c-9.285,8.4-24.8,11.634-36.918,16.966-17.568,7.733-33.839,18.84-49.891,28.944-9.01,5.671-14.007,12.808-28.936,12.975-2.507-3.739-3.966-4.058-3.991-10.979,15.633-15.271,44.228-25.161,55.877-42.916,22.393-34.131,22.105-87.543,32.927-133.739,3.95-16.861,3.045-32.6,7.983-47.906,2.486-7.709,6.348-16.765,8.98-23.954,2.054-5.608.89-10.078,2.993-15.968,3.85-10.782,14.292-15.844,14.967-29.942-9.991-8.486-7.266-30.959-20.953-37.926-8.251-4.2-39.04,1.141-50.888,3.992-7.575,1.823-15.072-.492-16.963-4.99-1.753-2.556-.639-6.18,0-8.982,13.436-7.233,29.514-12.939,42.906-19.961,6.812-3.572,14.469-5.071,14.967-14.971,1.575-3.455-1.827-9.451-2.994-12.975-3.722-11.246-9.674-30.8-3.991-43.914C149.683,5.411,162.616,8.736,172.747,1Zm25.943,9.981c-11.076,6.448-35.2,1.146-39.912,13.973-2.116,2.459-3.311,11.64-2,16.967,2.307,9.341,13.055,29.14,8.981,41.918C162.971,92.59,152.328,95.081,149.8,103.8c17.265,0.876,27.775,9.992,33.925,21.957,4.232,8.232,3.287,24.234,14.967,24.952,9.921-9.5,54.938-10.637,70.844-5.989,7.737,2.262,11.785,8.524,19.956,9.981v-2c6.171-9.454-2.923-48.634-4.989-54.893-3.048-9.235-3.413-17.316-6.985-25.949-4.765-11.519-11.685-22.828-17.96-32.936-4.616-7.435-8.181-17.944-15.965-21.957C234.482,12.27,211.78,10.833,198.69,10.979Zm13.969,44.912c17.612-.462,26.873,8.829,32.928,19.961,1.69,3.107,5.275,11.031,2,15.969a11.5,11.5,0,0,1-7.982,7.984c-9.062,7.1-27-1.778-30.932-6.986-4.365-5.775-5.925-12.058-10.976-16.967-0.077-5.886.976-8.774,2-12.975l7.982-5.988C210.2,56.815,211.379,56.769,212.659,55.891Zm2.994,15.969c-2.9,6.412,4.376,9.424,8.98,13.973h5.987c0.629-1.751.192-.97,1-2-0.63-1.751-.193-0.97-1-2-1.593-5.88-5.379-6.4-8.98-9.981h-5.987Zm8.98,84.834c-10.442,6.245-27.442,3.061-28.936,17.965,4.1,1.4,11.319,1.072,16.962,1,3.162-2.093,9.353-.089,13.97-1,15.047-2.964,34-1.7,37.916,9.98,5.38,7,1.776,18.286-1,24.952-8.131,19.537-21.849,28.609-38.914,38.924-6.163,3.725-16.172,3.915-18.958,10.978h-1c-0.988,1.008.983,0.987,1,1,5.2,8.916,18.8,11.779,25.943,18.963a45.512,45.512,0,0,1,7.982,12.975c1.569,4.653-.293,10.326,2,13.973v-1c10.124-9.946,12.076-26.583,17.96-40.921,12.557-30.595,27.088-59.079,16.963-98.807C262.849,156.788,247.516,156.65,224.633,156.694Zm-81.82,229.552c12.16-.921,18.321-9.4,25.943-14.971,18.741-13.687,56.3-44.152,56.875-73.856-1.575-1.642-.664-2.756-2-4.99-3.382-5.673-22.258-17.123-28.936-19.961-10.069-4.279-20.806-1.45-20.954-15.969,0.8-1.019.354-.273,1-2,25.48-14.052,77.819-23.487,77.828-60.881-1.51-1.409-2.2-2.759-3.991-3.992-2.88-2.155-12.255-3.228-17.96-2-13.884,3-34.845-.159-44.9,6.986-11.742,8.343-13.3,29.365-17.961,44.912-7.214,24.071-6.367,52.68-12.971,78.846-2.3,9.1-2.415,19.774-4.989,29.942C146.772,360.271,142.97,371.868,142.813,386.246ZM196.7,434.152c2.322,0.195,2.819.192,3.991,1,4.9,2.429,12.113,13.959,15.965,12.975,9.327-2.421,18.67-10.926,24.945-16.967,0.884-17.839-4.6-27.176-9.978-39.922-3.2-7.581-4.243-14.623-7.983-20.959-6.232,3.088-29.2,22.434-30.932,28.943Q194.7,416.684,196.7,434.152Zm2,8.983c0.162,5.3,2.41,11.837,6.985,12.974,1.878-2.162,2.217-1.2,2.993-4.99-2.659-2.862-2.71-5.476-6.984-6.986C200.613,443.382,200.74,443.532,198.69,443.135ZM193.7,459.1c0.826,3.239-.489,1.525,2,2.994C194.857,459.713,195.3,460.456,193.7,459.1Z"/>
</svg>
