<svg xmlns="http://www.w3.org/2000/svg" width="64" height="64" viewBox="0 0 512 512">
  <defs>
    <style>
      .cls-1 {
        fill: #bbb;
        fill-rule: evenodd;
      }
    </style>
  </defs>
  <path id="形状512灰_1" data-name="形状512灰 1" class="cls-1" d="M176.738,0.936c20.441-.051,60.8-3.758,73.838,3.993,12.313,7.319,17.445,22.57,24.945,34.936,12.061,19.889,20.241,44.239,26.941,69.873,4.077,15.6,3.545,49.487,0,64.881-2.895,12.57-.9,23.988-3.992,35.934-6.471,24.976-12.193,50.432-21.951,72.867a393.332,393.332,0,0,1-26.941,51.905c-5.387,8.537-17.015,17-18.958,27.948,2.864,2.48,15.949,36.45,17.96,41.924,2.529,6.883.692,14.953,7.983,16.968,6.866,4.277,16.739-5.4,20.953-7.985,6.05-3.7,12.055-5.259,17.961-8.983,9.649-6.085,19.376-13.9,28.936-19.964,27.271-17.308,51.693-35.006,76.831-53.9,16.02-12.042,28.749-28.709,44.9-40.925l12.971-13.975c12.173-9.215,22.667-19.7,34.924-28.947,6.315-4.765,10.583-12.119,17.96-15.97v17.967c-7.468,4.84-12.992,12.706-19.956,17.967-17.371,13.123-32.689,28.507-48.892,42.921-3.9,3.469-6.826,8.834-10.976,11.978-18.6,14.09-34.767,31.42-53.881,44.918-30.22,21.34-61.527,39.275-93.794,58.892-4.786,2.91-10.187,7.062-14.967,9.982l-7.982,2.994c-2.514,1.956-2.993,7.554-5.987,8.984h-8.98q-2.495,3.493-4.989,6.987c-3.35,2.1-4.084-1.463-7.983,0-2.851,1.07-6.435,5.3-8.98,6.987-9.193,6.079-18.191,12.226-26.941,17.967-11.7,7.678-24.381,12.333-35.921,19.964-4.56,3.015-10.252,9.887-14.967,11.978H127.846v-1h1c7.73-14.457,28.207-24.424,41.908-32.94,5.29-3.288,13.182-4.294,15.964-9.982,1.18-3.229-1.539-14.64,0-20.961,2.551-10.471.276-31.426-3.991-41.923a14.1,14.1,0,0,0-3.991-1c-15.111,11.692-37.314,14.833-53.881,24.955-14.291,8.73-43.161,33.458-60.866,34.936-1.729-1.721-2.777-1.5-3.991-3.993-1.646-1.787-1.742-2.507-2-5.989,14-13.448,32.158-22.118,47.9-33.938,9.094-6.831,17.8-24.715,21.951-35.934,6.056-16.37,5.466-33.815,9.978-51.9,10.435-41.833,12.091-88.875,25.943-125.77,2.291-6.1,1.5-12.48,3.991-18.965,1.431-3.722,13.1-22,15.965-24.954-2.971-11.446-15.267-40.856-25.943-43.92-7.332-2.1-17.724.8-22.949,2-12.565,2.878-29.727,3.956-39.912,2-1.319-2.679-3.125-5.679-2-7.986,2.892-9.145,14.594-9.333,22.95-12.976,13.6-5.929,25.965-12.507,35.92-21.96-0.05-20.049-20.052-54.765-1-68.874C157.853,5.692,169.241,6.2,176.738.936ZM146.8,104.746c33.519,0.078,35.6,24.833,45.9,47.912,8.169-1.859,14.178-5.852,21.952-7.985,12.833-3.521,48.509-1.974,58.87,2,4.425,1.695,10.793,6.614,13.97,9.982,1.75-.63.969-0.193,2-1,8.879-12.211-2.809-55.893-5.987-64.881-8.722-24.67-16.341-44.059-29.934-62.885-2.476-3.429-4.494-8.707-7.982-10.98-5.425-3.534-12.582-2.263-19.956-3.993-24.975-5.858-55.15-1.537-69.846,13.974-0.049,15.075,2.228,24.427,5.986,35.934,1.353,4.139,5.5,10.43,3.992,16.969C162.8,92.626,149.384,95.256,146.8,104.746Zm66.853-47.913c19.307,0.006,34.326,14.032,33.925,33.938-2.972,3.174-4.5,7.3-8.98,8.984C215.01,108.6,208.268,84.005,198.69,74.8c0.026-5.138,1.063-7.15,2-10.98,2.659-1.67,4.964-4.821,7.982-5.989C210.789,57.011,212.318,57.769,213.657,56.833Zm2,14.973c-2.9,6.413,4.376,9.426,8.98,13.974h5.987c0.629-1.751.192-.97,1-2-0.63-1.751-.193-0.97-1-2-1.593-5.881-5.379-6.4-8.98-9.982h-5.987Zm11.973,83.846c-2.183,1.272-5.69.134-8.98,1-9.926,2.608-23.3,8.082-24.945,18.965,3.6,1.237,9.862,1.069,14.967,1,3.224-2.066,9.336,0,13.969-1,10.379-2.224,28.186-3.221,35.921,2,3,2.022,4.519,6.355,6.985,8.984,1.936,28.982-13.45,44.568-31.93,55.9-7.194,4.411-28.685,10.291-29.934,18.966,10.927,6.819,28.652,15.735,33.925,27.949,2.266,5.248-.011,15.009,2.994,19.963a2.831,2.831,0,0,1,1-1c9.938-17.547,15.561-37.474,23.947-57.894,11.467-27.921,20.443-47.566,11.973-84.845-3.074-2.019-5.45-5.521-8.98-6.987C258.767,154.59,238.541,155.651,227.626,155.652Zm6.985,30.944c-3.677,2.293-10.808-.094-15.965,1-10.4,2.2-25.236.831-32.927,5.989-11.522,7.728-13.456,28-17.961,42.921-7.033,23.308-6.775,51.053-12.971,76.86l-13.969,73.864h1.995c6.975,1.614,16.487-8.232,21.952-11.978,19.11-13.1,39.047-30.666,51.886-49.908,4.7-7.05,13.176-22.589,7.982-29.945-3.377-11.25-22.423-20.729-32.928-24.955-6.951-2.8-12.081-1.334-15.964-6.987-1.477-1.9-1.847-3.312-1-4.991,3.176-9.973,17.731-9.982,26.941-13.974,20.686-8.967,51.343-22.122,51.885-50.907-2.083-2.194-1.712-3.682-4.989-4.991C245.49,186.429,239.878,186.5,234.611,186.6ZM222.637,369.261c-9.329,9.895-20.435,18.165-29.934,27.949a168.587,168.587,0,0,0,3.992,37.931c12.006,0.818,11.179,12.323,19.956,14.972,7.387-6.956,17.623-11.04,24.945-17.967,2.352-26.5-10.615-40.293-15.965-61.886Zm-24.945,72.867c0.463,4.551,2.511,12.544,4.989,15.971,3.125-2.4,5.431-1.73,6.985-5.989h-1C207.176,446.723,203.888,442.945,197.692,442.128ZM192.7,458.1a16.961,16.961,0,0,0,1,5.989l2.994-1q0.5-1.5,1-2.995C195.606,458.976,195.864,458.663,192.7,458.1Z"/>
</svg>
